# xmcd
#
# Track frame offsets:
#	150
#	9540
#	20137
#	30827
#	43339
#	55062
#	92267
#	116377
#	166457
#
# Disc length: 2921
#
# Revision: 5
# Processed by: cddbd v1.5.2PL0 Copyright (c) Steve Scherf et al.
# Submitted via: ExactAudioCopy v0.90b4
# Normalized: r4:DSETVAR1
#
DISCID=630b6709
DTITLE=Various / Jazz Piano Anthology, Vol. 2: Bop
DYEAR=1997
DGENRE=Jazz
TTITLE0=Art Tatum / Back Home Again in Indiana
TTITLE1=Art Tatum / Limehouse Blues
TTITLE2=Art Tatum / I Guess I'll Have to Change My Plan
TTITLE3=Bud Powell / Ray's Idea
TTITLE4=Bud Powell / Fool's Fancy
TTITLE5=Bud Powell / Miguel's Party
TTITLE6=Thelonius Monk / 'Round Midnight
TTITLE7=Thelonius Monk / Light Blue
TTITLE8=Thelonius Monk / Evidence
EXTD=
EXTT0=Art Tatum
EXTT1=Art Tatum
EXTT2=Art Tatum
EXTT3=Bud Powell
EXTT4=Bud Powell
EXTT5=Bud Powell
EXTT6=Thelonious Monk
EXTT7=Thelonious Monk
EXTT8=Thelonious Monk
PLAYORDER=
.
